# xmcd
#
# Track frame offsets:
#	150
#	9958
#	23888
#	36621
#	46490
#	57595
#	67617
#	76971
#	91103
#	102367
#	114156
#
# Disc length: 1709 seconds
#
# Revision: 0
# Processed by: cddbd v1.5.1PL0 Copyright (c) Steve Scherf et al.
# Submitted via: EasyCDDAExtractor 7.7.1.2
#
DISCID=7f06ab0b
DTITLE=The Statler Brothers - Entertainers...On And Off The Road
DYEAR=1978
DGENRE=Country
TTITLE0=Do You Know You Are My Sunshine
TTITLE1=Yours Love
TTITLE2=The Best That I Can Do
TTITLE3=You're The First
TTITLE4=Tomorrow Is Your Friend
TTITLE5=The Official Historian On Shirley Jean Berrell
TTITLE6=Who Am I To Say
TTITLE7=I Forgot More Than You'll Ever Know
TTITLE8=When You Are Sixty-Five
TTITLE9=I Dreamed About You
TTITLE10=Before The Magic Turns To Memory
EXTD=
EXTT0=
EXTT1=
EXTT2=
EXTT3=
EXTT4=
EXTT5=
EXTT6=
EXTT7=
EXTT8=
EXTT9=
EXTT10=
PLAYORDER=
